<?xml version="1.0" encoding="utf-8"?>
<!-- Generator: Adobe Illustrator 16.0.0, SVG Export Plug-In . SVG Version: 6.00 Build 0)  -->
<!DOCTYPE svg PUBLIC "-//W3C//DTD SVG 1.1//EN" "http://www.w3.org/Graphics/SVG/1.1/DTD/svg11.dtd">
<svg version="1.1" id="be3e1a43-0c7b-454d-900a-5620992e061d"
	 xmlns="http://www.w3.org/2000/svg" xmlns:xlink="http://www.w3.org/1999/xlink" x="0px" y="0px" width="997.862px"
	 height="450.808px" viewBox="0 0 997.862 450.808" enable-background="new 0 0 997.862 450.808" xml:space="preserve">
<rect x="871.992" y="181.558" fill="#F2F2F2" width="30.159" height="104.398"/>
<polygon fill="#F2F2F2" points="922.068,266.317 848.715,179.052 701.475,180.398 612.156,267.396 613.961,268.556 613.316,268.556 
	613.316,449.513 921.872,449.513 921.872,268.556 "/>
<polygon fill="#E6E6E6" points="848.792,179.238 757.154,286.673 757.154,449.513 921.872,449.513 921.872,266.236 "/>
<rect x="823.272" y="359.46" fill="#3F3D56" width="33.64" height="29.734"/>
<rect x="823.272" y="307.996" fill="#3F3D56" width="33.64" height="29.262"/>
<rect x="823.272" y="359.46" fill="#FFFFFF" width="33.64" height="29.734"/>
<rect x="823.272" y="307.996" fill="#FFFFFF" width="33.64" height="29.262"/>
<rect x="673.777" y="351.572" fill="#FFFFFF" width="33.64" height="29.732"/>
<rect x="673.777" y="300.106" fill="#FFFFFF" width="33.64" height="29.263"/>
<rect x="633.992" y="181.558" fill="#F2F2F2" width="30.159" height="104.398"/>
<polygon fill="#F2F2F2" points="684.068,266.317 610.715,179.052 463.475,180.398 374.156,267.396 375.961,268.556 375.316,268.556 
	375.316,449.513 683.872,449.513 683.872,268.556 "/>
<polygon fill="#E6E6E6" points="610.792,179.238 519.154,286.673 519.154,449.513 683.872,449.513 683.872,266.236 "/>
<rect x="585.272" y="359.46" fill="#3F3D56" width="33.64" height="29.734"/>
<rect x="585.272" y="307.996" fill="#3F3D56" width="33.64" height="29.262"/>
<rect x="585.272" y="359.46" fill="#FFFFFF" width="33.64" height="29.734"/>
<rect x="585.272" y="307.996" fill="#FFFFFF" width="33.64" height="29.262"/>
<rect x="435.777" y="351.572" fill="#FFFFFF" width="33.64" height="29.732"/>
<rect x="435.777" y="300.106" fill="#FFFFFF" width="33.64" height="29.263"/>
<rect x="380.154" y="91.46" fill="#F2F2F2" width="40.3" height="139.501"/>
<polygon fill="#F2F2F2" points="447.068,204.718 349.051,88.112 152.302,89.91 32.951,206.161 35.362,207.711 34.501,207.711 
	34.501,449.513 446.804,449.513 446.804,207.711 "/>
<polygon fill="#E6E6E6" points="349.153,88.36 226.702,231.921 226.702,449.513 446.804,449.513 446.804,204.611 "/>
<rect x="315.053" y="329.181" fill="#3F3D56" width="44.95" height="39.731"/>
<rect x="315.053" y="260.412" fill="#3F3D56" width="44.95" height="39.102"/>
<rect x="315.053" y="329.181" fill="#FFFFFF" width="44.95" height="39.731"/>
<rect x="315.053" y="260.412" fill="#FFFFFF" width="44.95" height="39.102"/>
<rect x="115.291" y="318.639" fill="#FFFFFF" width="44.95" height="39.731"/>
<rect x="115.291" y="249.869" fill="#FFFFFF" width="44.95" height="39.102"/>
<rect x="0" y="448.621" fill="#410000" width="963.951" height="2"/>
<ellipse fill="#410000" cx="151.872" cy="352.472" rx="29.1" ry="59.375"/>
<path fill="#930000" d="M154.56,449.66c-11.655-69.926-0.118-139.6,0-140.294l2.267,0.384c-0.118,0.691-11.588,69.998,0,139.531
	L154.56,449.66z"/>
<rect x="149.956" y="346.606" transform="matrix(-0.8818 0.4716 -0.4716 -0.8818 474.2778 576.6425)" fill="#930000" width="29.841" height="2.299"/>
<rect x="135.954" y="339.889" transform="matrix(-0.472 0.8816 -0.8816 -0.472 514.6166 401.4137)" fill="#930000" width="2.3" height="29.842"/>
<ellipse fill="#930000" cx="81.955" cy="260.903" rx="56.915" ry="116.129"/>
<path fill="#410000" d="M88.294,450.808c-22.764-136.585-0.229-272.673,0.001-274.032l2.267,0.384
	c-0.229,1.355-22.698,137.077,0.001,273.271L88.294,450.808z"/>
<rect x="78.207" y="250.529" transform="matrix(-0.8818 0.4717 -0.4717 -0.8818 320.7921 422.9547)" fill="#410000" width="58.368" height="2.301"/>
<rect x="51.92" y="236.292" transform="matrix(-0.472 0.8816 -0.8816 -0.472 312.1613 343.9972)" fill="#410000" width="2.3" height="58.367"/>
<ellipse fill="#930000" cx="216.753" cy="191.008" rx="77.884" ry="158.914"/>
<path fill="#410000" d="M225.847,450.808c-31.14-186.837-0.314-372.992,0-374.85l2.267,0.384c-0.314,1.855-31.074,187.644,0,374.089
	L225.847,450.808z"/>
<rect x="211.624" y="177.235" transform="matrix(-0.8818 0.4717 -0.4717 -0.8818 557.5176 217.0339)" fill="#410000" width="79.871" height="2.3"/>
<rect x="176.077" y="157.33" transform="matrix(-0.472 0.8816 -0.8816 -0.472 434.7877 134.1357)" fill="#410000" width="2.3" height="79.871"/>
<ellipse fill="#410000" cx="871.03" cy="352.472" rx="29.099" ry="59.375"/>
<path fill="#930000" d="M868.342,449.66c11.654-69.926,0.117-139.6,0-140.294l-2.268,0.384c0.117,0.691,11.588,69.998,0,139.531
	L868.342,449.66z"/>
<rect x="856.874" y="332.836" transform="matrix(-0.4717 0.8818 -0.8818 -0.4717 1569.3701 -244.804)" fill="#930000" width="2.3" height="29.841"/>
<rect x="870.877" y="353.66" transform="matrix(-0.8817 0.4719 -0.4719 -0.8817 1834.2 249.6367)" fill="#930000" width="29.842" height="2.299"/>
<ellipse fill="#930000" cx="940.946" cy="260.903" rx="56.916" ry="116.129"/>
<path fill="#410000" d="M934.607,450.808c22.765-136.585,0.229-272.673-0.001-274.032l-2.267,0.384
	c0.229,1.355,22.698,137.077-0.001,273.271L934.607,450.808z"/>
<rect x="914.361" y="222.495" transform="matrix(-0.4713 0.882 -0.882 -0.4713 1568.9951 -437.1329)" fill="#410000" width="2.3" height="58.368"/>
<rect x="940.648" y="264.327" transform="matrix(-0.8817 0.4719 -0.4719 -0.8817 1950.1633 41.8683)" fill="#410000" width="58.368" height="2.3"/>
<ellipse fill="#930000" cx="806.148" cy="191.008" rx="77.884" ry="158.914"/>
<path fill="#410000" d="M797.055,450.808c31.14-186.837,0.314-372.992-0.001-374.85l-2.267,0.384
	c0.314,1.855,31.073,187.644-0.001,374.089L797.055,450.808z"/>
<rect x="770.192" y="138.449" transform="matrix(-0.4714 0.8819 -0.8819 -0.4714 1292.2899 -417.7704)" fill="#410000" width="2.299" height="79.872"/>
<rect x="805.739" y="196.116" transform="matrix(-0.8817 0.4719 -0.4719 -0.8817 1684.3606 -27.8695)" fill="#410000" width="79.872" height="2.299"/>
<path fill="#410000" d="M589.604,101.466l9.206-7.363c-7.151-0.789-10.09,3.111-11.292,6.198c-5.588-2.32-11.67,0.72-11.67,0.72
	l18.419,6.687C593.338,105.227,591.721,103.062,589.604,101.466z"/>
<path fill="#410000" d="M364.604,36.466l9.206-7.363c-7.151-0.789-10.09,3.111-11.292,6.198c-5.588-2.32-11.67,0.72-11.67,0.72
	l18.419,6.687C368.338,40.227,366.721,38.062,364.604,36.466z"/>
<path fill="#410000" d="M731.604,7.466l9.206-7.363c-7.151-0.789-10.09,3.111-11.292,6.198c-5.588-2.32-11.67,0.72-11.67,0.72
	l18.419,6.687C735.338,11.227,733.721,9.062,731.604,7.466z"/>
<path fill="#410000" d="M750.191,437.052c-2.447,0-4.851,0.645-6.97,1.869c-6.137-5.549-15.611-5.072-21.16,1.064
	c-2.495,2.758-3.875,6.348-3.87,10.066h45.95C763.621,442.73,757.532,437.056,750.191,437.052z"/>
<path fill="#410000" d="M283.191,437.052c-2.447,0-4.851,0.645-6.969,1.869c-6.137-5.549-15.611-5.072-21.161,1.064
	c-2.495,2.758-3.874,6.348-3.87,10.066h45.95C296.621,442.73,290.531,437.056,283.191,437.052z"/>
<path fill="#410000" d="M522.191,437.052c-2.447,0-4.851,0.645-6.97,1.869c-6.137-5.549-15.611-5.072-21.16,1.064
	c-2.495,2.758-3.875,6.348-3.87,10.066h45.95C535.621,442.73,529.532,437.056,522.191,437.052z"/>
<polygon fill="#410000" points="471.758,404.228 339.191,404.228 339.191,408.503 359.866,408.503 359.866,449.13 364.142,449.13 
	364.142,408.503 444.668,408.503 444.668,449.13 448.946,449.13 448.946,408.503 471.758,408.503 "/>
<rect x="339.452" y="391.434" fill="#410000" width="132.568" height="4.276"/>
<rect x="339.452" y="380.744" fill="#410000" width="132.568" height="4.275"/>
<rect x="339.452" y="370.052" fill="#410000" width="132.568" height="4.276"/>
<polygon fill="#410000" points="678.758,404.228 546.191,404.228 546.191,408.503 566.866,408.503 566.866,449.13 571.142,449.13 
	571.142,408.503 651.668,408.503 651.668,449.13 655.946,449.13 655.946,408.503 678.758,408.503 "/>
<rect x="546.452" y="391.434" fill="#410000" width="132.568" height="4.276"/>
<rect x="546.452" y="380.744" fill="#410000" width="132.568" height="4.275"/>
<rect x="546.452" y="370.052" fill="#410000" width="132.568" height="4.276"/>
</svg>
