<?xml version="1.0" encoding="utf-8"?>
<!-- Generator: Adobe Illustrator 16.0.0, SVG Export Plug-In . SVG Version: 6.00 Build 0)  -->
<!DOCTYPE svg PUBLIC "-//W3C//DTD SVG 1.1//EN" "http://www.w3.org/Graphics/SVG/1.1/DTD/svg11.dtd">
<svg version="1.1" id="a2995fdc-ba4a-4390-a70c-27b90cf54d89"
	 xmlns="http://www.w3.org/2000/svg" xmlns:xlink="http://www.w3.org/1999/xlink" x="0px" y="0px" width="908.624px"
	 height="777.899px" viewBox="0 0 908.624 777.899" enable-background="new 0 0 908.624 777.899" xml:space="preserve">
<title>social_distancing</title>
<ellipse fill="#910000" cx="123.571" cy="330.548" rx="95.373" ry="194.599"/>
<path fill="#410000" d="M122.696,332.566c4.757-84.707,14.343-141.924,14.439-142.492l-2.08-0.353
	c-0.097,0.569-9.699,57.877-14.464,142.694c-4.397,78.28-5.458,196.685,14.463,316.214l2.081-0.346
	C117.248,528.958,118.306,410.733,122.696,332.566z"/>
<rect x="117.291" y="314.036" transform="matrix(-0.8817 0.4719 -0.4719 -0.8817 461.4076 514.4684)" fill="#410000" width="97.806" height="2.11"/>
<rect x="74.113" y="289.308" transform="matrix(-0.4717 0.8818 -0.8818 -0.4717 408.849 431.4539)" fill="#410000" width="2.11" height="97.806"/>
<ellipse fill="#910000" cx="784.893" cy="252.458" rx="123.73" ry="252.458"/>
<path fill="#410000" d="M783.391,255.044c6.172-109.911,18.61-184.152,18.735-184.889l-1.972-0.334
	c-0.125,0.738-12.579,75.065-18.76,185.08c-5.704,101.538-7.08,255.117,18.76,410.152l1.973-0.328
	C776.32,509.881,777.694,356.473,783.391,255.044z"/>
<rect x="776.746" y="231.404" transform="matrix(-0.8817 0.4719 -0.4719 -0.8817 1690.6182 40.8285)" fill="#410000" width="126.887" height="2.001"/>
<rect x="721.099" y="198.956" transform="matrix(-0.4717 0.8818 -0.8818 -0.4717 1294.0583 -250.574)" fill="#410000" width="2" height="126.888"/>
<ellipse fill="#E6E6E6" cx="635.82" cy="478.968" rx="46.229" ry="94.325"/>
<path fill="#410000" d="M635.78,483.032l0.273,0.512l41.797-22.373l-0.943-1.764l-41.041,21.969
	c2.271-41.803,6.916-69.863,7.01-70.416l-1.971-0.334c-0.103,0.604-5.621,33.926-7.58,82.145l-41.395-22.156l-0.943,1.764
	l41.799,22.373l0.498-0.934c-1.566,39.799-0.688,89.561,7.62,139.41l1.973-0.328C633.818,578.547,633.618,524.297,635.78,483.032z"
	/>
<path fill="#410000" d="M870.057,685.766c-246.232-77.947-469.509-73.795-613.455-56.586
	C100.655,647.825,1.699,685.37,0.718,685.747L0,683.879c0.984-0.379,100.173-38.012,256.365-56.686
	c91.875-10.971,184.575-13.342,276.89-7.082c114.603,7.756,227.872,29.156,337.405,63.748L870.057,685.766z"/>
<path fill="#410000" d="M316.512,663.737c0,0,0.689-14.471,14.847-12.789"/>
<circle fill="#910000" cx="312.512" cy="642.881" r="7.086"/>
<rect x="311.359" y="654.813" fill="#410000" width="2" height="14"/>
<path fill="#410000" d="M574.512,666.737c0,0,0.689-14.471,14.847-12.789"/>
<circle fill="#910000" cx="570.512" cy="645.881" r="7.086"/>
<rect x="569.359" y="657.813" fill="#410000" width="2" height="14"/>
<path fill="#410000" d="M149.512,641.737c0,0,0.69-14.471,14.847-12.789"/>
<circle fill="#910000" cx="145.512" cy="620.881" r="7.086"/>
<rect x="144.359" y="632.813" fill="#410000" width="2" height="14"/>
<path fill="#410000" d="M258.512,622.737c0,0,0.69-14.471,14.847-12.789"/>
<circle fill="#910000" cx="254.512" cy="601.881" r="7.086"/>
<rect x="253.359" y="613.813" fill="#410000" width="2" height="14"/>
<path fill="#410000" d="M531.512,649.737c0,0,0.689-14.471,14.847-12.789"/>
<circle fill="#910000" cx="527.512" cy="628.881" r="7.086"/>
<rect x="526.359" y="640.813" fill="#410000" width="2" height="14"/>
<path fill="#FFB8B8" d="M839.014,620.729l41.158,61.027l-38.32,38.32l-4.967-9.936l8.516-19.869c0,0-1.42-18.449-6.387-23.418
	c-4.968-4.967-26.967-34.771-26.967-34.771L839.014,620.729z"/>
<path fill="#410000" d="M786.501,423.454c0,0,7.804,12.352-8.517,65.574c0,0,76.129,128.488,64.066,137.004
	c-12.064,8.516-44.709,27.359-53.225,21.684c-8.516-5.678-70.449-198.006-70.449-198.006L786.501,423.454z"/>
<path fill="#410000" d="M872.721,670.758l12.418,12.418c6.387,6.387,10.645,15.611-1.419,23.418
	c-12.063,7.805-53.932,36.9-68.124,27.676c-14.193-9.227,17.031-17.742,17.031-17.742s5.162-19.143,7.903-14.893
	s2.741,12.764,2.741,12.764L872.721,670.758z"/>
<path fill="#FFB8B8" d="M722.635,654.083c0,0-22.708,41.867-22.708,46.834s1.419,19.16,1.419,19.16l-43.287,10.645l-14.902-7.096
	l4.968-12.773c0,0,26.966-9.225,32.643-26.967c5.677-17.74,12.063-36.189,12.063-36.189L722.635,654.083z"/>
<circle fill="#FFB8B8" cx="748.891" cy="207.728" r="29.804"/>
<path fill="#FFB8B8" d="M741.085,233.274l14.229,40.885l31.187-13.919c0,0-21.289-32.643-21.289-36.9L741.085,233.274z"/>
<path fill="#410000" d="M736.828,378.747h37.61c0,0,26.965,41.158,11.354,84.445c-2.391,6.629-4.764,15.914-7.133,26.893
	c-5.447,25.248-10.871,59.445-16.43,90.871c-7.807,44.143-15.88,82.813-24.656,83.516c-17.74,1.418-52.238,1.182-52.238-5.914
	s23.107-212.396,23.107-212.396l4.968-8.516l0.938-37.092C714.657,388.378,724.648,378.686,736.828,378.747z"/>
<path fill="#410000" d="M699.573,700.563c0,0,8.16,13.836,6.031,23.771s-5.677,8.516-21.289,9.936
	c-15.611,1.418-68.834,1.418-68.834-8.516c0-9.936,41.518-22.838,41.693-18.869c0.176,3.967,1.594,11.771-2.664,13.191
	c-4.257,1.42-0.354,0.355-0.354,0.355L699.573,700.563z"/>
<path fill="#FFFFFF" d="M741.091,467.319c0,0-3.087,50.41-23.676,35.402c-20.589-15.006,8.023-42.113,8.023-42.113L741.091,467.319z
	"/>
<path fill="#700000" d="M782.184,400.93c2.016,0.91,4.369,0.631,6.118-0.725c1.245-0.977,2.075-2.39,2.321-3.953
	c2.977-17.161,6.602-64.735,8.688-88.791c2.619-30.186-10.464-53.566-10.574-53.708l-7.71-10.602
	c-1.649-2.281-4.653-3.124-7.248-2.034c0,0-24.072,24.975-24.16,25.939c-0.378,4.141-3.242,13.316-18.176,28.249
	c-16.338,16.339-16.43,30.599-16.067,34.581c0.024,0.262,0.036,0.523,0.036,0.785c-0.03,1.786,0.212,3.566,0.721,5.279
	c6.843,21.576,1.483,47.406-7.123,74.369c-0.668,2.497,0.314,5.145,2.451,6.6c2.514,1.709-0.5-0.828,0.396,0.271
	c5.932,7.269,14.467-2.861,24.23-13.915c3.4-3.85,7.256-8.214,11.799-12.757c6.247-6.247,18.184,8.008,23.732,8.008
	C775.272,398.569,778.873,399.389,782.184,400.93z"/>
<path fill="#700000" d="M785.493,264.761c0,0,15.589,13.146,6.732,30.196c-8.855,17.049-7.678,29.624-7.678,29.624
	s-2.358,117.125-30.031,111.433l-12.587,34.754l-22.733-8.205l13.146-30.652c0,0-10.529-0.656-7.452-7.83
	c2.16-5.038,13.803-59.718,20.541-91.821c2.855-13.604,4.831-23.154,4.831-23.154S759.217,261.214,785.493,264.761z"/>
<polygon opacity="0.2" enable-background="new    " points="788.763,324.281 779.999,381.79 784.727,320.297 "/>
<path fill="#410000" d="M716.374,194.522c0,0-5.01-38.996,35.873-26.208c0,0,29.199-5.357,38.775,31.167l9.695,38.286l-4.725-2.572
	l-2.203,4.815l-7.657,1.939l-3.276-6.504l-1.586,7.898l-62.717,6.252c0,0,28.09-16.612,28.535-46.385l-5.35,5.654L716.374,194.522z"
	/>
<polygon opacity="0.2" enable-background="new    " points="763.014,583.2 776.999,490.012 765.625,590.61 "/>
<circle fill="#410000" cx="785.87" cy="168.696" r="15.77"/>
<path fill="#410000" d="M769.62,164.835c0.537-8.305,7.44-14.759,15.763-14.739c-0.325-0.042-0.648-0.092-0.98-0.113
	c-8.691-0.563-16.192,6.028-16.755,14.719s6.027,16.193,14.719,16.755c0.004,0,0.008,0,0.013,0c0.332,0.021,0.658,0.013,0.987,0.014
	C775.109,180.426,769.089,173.14,769.62,164.835z"/>
<polygon opacity="0.2" enable-background="new    " points="740.865,342.202 726.99,416.567 744.974,334.43 "/>
<path fill="#FFFFFF" d="M741.73,229.206l-8.087,6.097c-8.328-4.191-14.574-13.889-16.845-23.144l8.812-4.446
	C726.303,217.152,733.004,223.428,741.73,229.206z"/>
<path fill="#FFFFFF" d="M745.088,209.056h-20.15c-0.37,0-0.671-0.301-0.671-0.672c0-0.371,0.301-0.671,0.671-0.671l0,0h20.15
	c0.371,0,0.672,0.301,0.672,0.671C745.76,208.755,745.459,209.056,745.088,209.056z"/>
<path fill="#FFFFFF" d="M741.059,229.206c-0.371,0-0.672-0.3-0.672-0.671c0-0.085,0.016-0.17,0.049-0.25l5.373-13.433
	c0.137-0.344,0.527-0.512,0.872-0.374s0.512,0.528,0.374,0.873l0,0l-5.373,13.433C741.581,229.038,741.333,229.206,741.059,229.206z
	"/>
<ellipse fill="#FFB8B8" cx="746.444" cy="210.093" rx="4.928" ry="6.899"/>
<polygon fill="#410000" points="399.191,230.876 451.677,242.887 473.853,201.062 428.974,183.54 "/>
<path fill="#FFB9B9" d="M427.077,456.026c0,0-16.871,38.664-16.871,49.912c0,0,6.678,30.58,4.569,39.016l-7.382,15.816
	l-15.465-6.326l-4.219-42.178l0.703-67.486L427.077,456.026z"/>
<path fill="#FFB9B9" d="M436.567,224.746c0,0,1.406,23.198-1.406,30.228c-2.812,7.03,10.545,20.386,10.545,20.386l21.09-27.416
	c0,0-14.06-14.06-10.545-29.525L436.567,224.746z"/>
<path fill="#E6E6E6" d="M392.631,385.377c0,0-20.387,37.961-0.703,35.149c19.684-2.812,13.005-36.203,13.005-36.203"/>
<polyline fill="#FFB9B9" points="404.933,384.323 411.611,317.891 411.26,277.47 395.793,280.281 395.793,317.539 392.631,385.377 
	"/>
<path fill="#410000" d="M388.061,549.524l30.229-11.951l3.516,59.754c0,0,6.326,18.277,4.217,25.307c0,0,1.406,11.951-2.108,12.654
	s-13.356,2.107-14.06,1.406c-0.703-0.703-0.703-2.813-0.703-2.813s-7.029,4.92-7.732,10.545c0,0-29.525,9.139-30.229,0.703
	s14.763-15.467,14.763-15.467l11.95-18.277L388.061,549.524z"/>
<path fill="#FFB9B9" d="M489.994,456.026c0,0-16.871,38.664-16.871,49.912c0,0,6.679,30.58,4.569,39.016l-7.381,15.816
	l-15.467-6.326l-4.217-42.178l0.703-67.486L489.994,456.026z"/>
<path fill="#410000" d="M452.033,549.524l30.229-11.951l3.515,59.754c0,0,6.327,18.277,4.218,25.307c0,0,1.406,11.951-2.108,12.654
	c-3.516,0.703-13.357,2.107-14.061,1.406c-0.703-0.703-0.703-2.813-0.703-2.813s-7.029,4.92-7.732,10.545
	c0,0-29.525,9.139-30.229,0.703s14.764-15.467,14.764-15.467l11.95-18.277L452.033,549.524z"/>
<path fill="#FFB9B9" d="M466.097,208.581c-0.005,12.425-10.082,22.493-22.507,22.487c-10.521-0.004-19.633-7.3-21.939-17.565
	c-0.369-1.614-0.555-3.266-0.551-4.922c0-12.425,10.073-22.499,22.499-22.499C456.024,186.082,466.097,196.155,466.097,208.581z"/>
<path fill="#700000" d="M446.409,253.568l17.457-9.065l7.851,6.253c0,0,18.98-0.703,26.011,7.733
	c7.029,8.436,10.896,29.876,10.896,29.876s-23.199-4.921-20.387,14.763l-4.219-11.248l-3.866,9.49l-47.1,16.168l-21.089-35.852
	c0,0-14.061-4.218-18.98,5.624c0,0,1.054-35.5,14.762-36.555c9.22-0.709,16.169-0.703,16.169-0.703l7.733-1.406l4.951-1.758
	L446.409,253.568z"/>
<path fill="#410000" d="M476.286,330.545c0,0,36.906,110.719,26.361,126.184c0,0-39.366,19.684-118.101-7.029l31.985-124.076
	C436.18,321.606,456.098,323.246,476.286,330.545z"/>
<path fill="#700000" d="M476.286,330.545l10.387-35.694c-12.459-13.551-1.705-43.598-1.705-43.598l-15.035-3.222
	c0,0-15.088,40.687-30.553,35.766c-15.466-4.921-7.03-36.555-7.03-36.555l-14.06,1.406l-6.326,24.604l4.568,52.372
	C435.588,323.989,455.575,325.892,476.286,330.545z"/>
<polyline fill="#FFB9B9" points="494.563,384.323 499.484,317.539 500.89,277.47 485.424,280.281 485.424,317.539 482.261,385.377 
	"/>
<path fill="#FFFFFF" d="M482.261,385.377c0,0-20.387,37.961-0.703,35.149c19.684-2.812,13.005-36.203,13.005-36.203"/>
<path fill="#700000" d="M508.624,288.366c0,0-2.5-36.102-23.395-35.977v41.75C485.229,294.139,500.89,284.851,508.624,288.366z"/>
<path fill="#FFFFFF" d="M450.792,214.386c-0.317,0-0.573-0.256-0.574-0.573c0-0.174,0.079-0.339,0.216-0.448l11.473-9.178
	c0.246-0.2,0.607-0.163,0.808,0.084c0.199,0.246,0.162,0.607-0.084,0.807c-0.003,0.001-0.005,0.003-0.007,0.005l-11.473,9.179
	C451.049,214.342,450.922,214.386,450.792,214.386z"/>
<path fill="#FFFFFF" d="M451.661,228.153c-0.252,0.31-0.505,0.62-0.769,0.906c-11.316,5.131-24.649,0.117-29.78-11.2
	c-0.635-1.399-1.124-2.859-1.461-4.357l10.871-2l21.139,2C446.819,219.399,447.405,221.442,451.661,228.153z"/>
<path fill="#410000" d="M430.896,177.091c0,0-11.627,2.187-14.315,16.688c-0.421,2.446-0.498,4.938-0.229,7.404
	c0.27,2.792-0.121,8.687-6.182,15.629c-3.955,4.502-7.639,9.235-11.035,14.172l0,0l12.148,3.234l5.429-20.129
	c2.632-9.759,6.687-19.077,12.032-27.655l0.111-0.179c0,0,4.035,10.781,14.851,12.26l-3.335-4.391c0,0,12.644,7.309,19.807,9.541
	c2.48,0.774,3.865,3.413,3.092,5.895c-0.282,0.904-0.83,1.702-1.573,2.29c-0.051,0.04-0.103,0.08-0.155,0.12
	c-5.269,4.001-16.017,13.55-11.771,22.787c4.246,9.236-0.706,10.92-0.706,10.92l9.131-3.474l4.18-1.79l-0.422,3.09l20.402,0.428
	c0,0,5.513-0.034-4.28-14.75c0,0-2.362-5.518-0.423-9.734c1.557-3.192,2.332-6.709,2.262-10.261
	C479.297,194.35,473.047,164.166,430.896,177.091z"/>
<path fill="#410000" d="M144.696,599.713c0,0,0,95.461-21.909,120.5c0,0-4.695,12.52-6.26,17.215
	c-0.875,2.672-1.92,5.285-3.13,7.824v6.26c0,0-42.254-4.693-46.949-15.648l7.825-9.391c0,0,1.565-1.564,0-6.26
	s3.13-4.695,3.13-4.695l10.955-25.039l-1.565-103.285l7.825-142.412l67.292-3.129L144.696,599.713z"/>
<path fill="#410000" d="M110.267,742.124c0,0,10.955,32.863,0,34.428c-10.955,1.566-106.417,3.131-104.852-9.389
	s32.864-10.955,32.864-10.955l32.864-20.344L110.267,742.124z"/>
<path fill="#410000" d="M207.294,444.782c0,0,3.13,20.346-9.39,42.254c-12.52,21.91-4.695,95.463-4.695,95.463l111.111,97.027
	c0,0-21.909,37.559-29.734,35.992c-7.825-1.564-131.456-101.721-131.456-101.721L94.618,451.043L207.294,444.782z"/>
<path fill="#410000" d="M302.793,675.379c0,0,33.623,8.34,29.08,18.43c-4.543,10.092-54.326,91.559-64.063,83.535
	s8.341-33.623,8.341-33.623l0.41-38.648L302.793,675.379z"/>
<path fill="#A0616A" d="M182.254,153.705c0.013,8.245-2.822,16.24-8.023,22.637c-8.383,10.39-21.839,15.271-34.934,12.671
	c-3.217-0.622-6.331-1.693-9.249-3.183c-9.38-4.728-16.225-13.319-18.737-23.519c-0.7-2.815-1.051-5.706-1.046-8.606
	c0-19.879,16.115-35.995,35.995-35.995S182.254,133.826,182.254,153.705z"/>
<path fill="#A0616A" d="M174.582,166.402l-1.592,46.317l-30.286,11.966c0,0-2.97-47.426-7.163-50.055
	S174.582,166.402,174.582,166.402z"/>
<path fill="#700000" d="M135.306,230.385c0,0,42.254-42.253,53.208-40.688s10.955,6.26,10.955,9.39s-3.13,4.695,0,6.26
	s6.26,0,6.26,4.695s28.169,51.644,18.779,103.287c-9.39,51.644-20.344,76.683-15.649,104.851c4.695,28.17,1.565,34.43,1.565,34.43
	s-117.371,9.389-118.936-1.564c-1.565-10.955,4.695-4.695-3.13-12.521c-7.825-7.824-4.695-7.824-4.695-12.52
	C83.663,421.309,118.092,230.385,135.306,230.385z"/>
<path fill="#FFFFFF" d="M157.215,443.217c0,0-18.779,45.385-32.864,34.43s6.26-48.514,6.26-48.514L157.215,443.217z"/>
<path fill="#700000" d="M202.599,233.515c0,0,36.769,4.209,23.079,71.745S158.78,451.043,158.78,451.043l-35.994-17.215
	l46.948-92.333l-10.955-57.903C158.78,283.593,152.521,228.82,202.599,233.515z"/>
<polygon opacity="0.2" enable-background="new    " points="170.518,342.279 118.874,428.35 123.569,433.045 "/>
<polygon opacity="0.2" enable-background="new    " points="197.853,382.389 156.433,450.26 170.518,450.26 "/>
<rect x="122.727" y="502.333" transform="matrix(-0.9341 0.3569 -0.3569 -0.9341 439.4333 1039.1409)" opacity="0.2" enable-background="new    " width="2.227" height="115.563"/>
<circle fill="#D0CDE1" cx="135.528" cy="236.751" r="2.227"/>
<line fill="none" x1="135.528" y1="236.751" x2="116.605" y2="297.973"/>
<path fill="#D0CDE1" d="M116.605,299.086c0.488,0,0.919-0.318,1.063-0.785l18.923-61.221c0.183-0.587-0.145-1.211-0.731-1.394
	c-0.587-0.183-1.211,0.145-1.394,0.731c0,0.001-0.001,0.003-0.001,0.004l-18.923,61.222c-0.181,0.588,0.149,1.211,0.737,1.393
	C116.385,299.069,116.495,299.086,116.605,299.086z"/>
<path fill="#FFFFFF" d="M139.043,181.272l-8.995,8.558c-9.264-4.662-18.211-17.224-20.737-27.519l11.802-4.946
	C121.883,167.866,129.336,174.847,139.043,181.272z"/>
<path fill="#FFFFFF" d="M141.286,161.848c-0.036,0-0.071-0.002-0.106-0.007l-20.918-2.988c-0.409-0.058-0.693-0.436-0.635-0.845
	s0.436-0.693,0.845-0.635l0,0l20.918,2.988c0.409,0.058,0.693,0.436,0.635,0.845C141.972,161.574,141.657,161.848,141.286,161.848z"
	/>
<path fill="#FFFFFF" d="M138.296,181.272c-0.412,0-0.747-0.333-0.747-0.746c0-0.129,0.033-0.255,0.096-0.368l6.931-12.338
	c0.201-0.36,0.656-0.488,1.016-0.287c0.36,0.202,0.488,0.657,0.287,1.017c0,0.001-0.001,0.002-0.002,0.003l-6.931,12.338
	C138.815,181.127,138.566,181.273,138.296,181.272z"/>
<path fill="#410000" d="M162.552,175.331c-2.914-1.541-6.299-1.858-9.453-2.816c-11.284-3.426-18.843-16.182-16.43-27.726
	c0.446-1.48,0.646-3.024,0.593-4.569c-0.422-3.418-3.92-5.625-7.274-6.408c-3.354-0.784-6.924-0.67-10.13-1.929
	c-4.95-1.945-8.238-7.032-8.951-12.303c-0.713-5.271,0.851-10.646,3.395-15.317l1.212,3.486c1.848-1.564,3.22-3.616,3.959-5.921
	c2.8,0.47,5.154,2.363,6.214,4.997c1.945,1.147,2.225-3.563,4.374-4.257c0.899-0.291,1.825,0.262,2.682,0.661
	c4.329,2.019,9.358,0.293,14.001-0.826c8.041-1.929,16.423-1.939,24.468-0.029c5.345,1.275,10.636,3.495,14.461,7.44
	c3.141,3.24,5.098,7.43,6.765,11.624c4.102,10.324,6.812,21.495,5.458,32.521c-1.128,9.023-4.903,17.51-10.849,24.39
	c-3.097,3.568-13.203,16.019-18.744,13.896C161.34,189.58,170.755,179.668,162.552,175.331z"/>
</svg>
