<?xml version="1.0" encoding="UTF-8" standalone="no"?>
<!DOCTYPE svg PUBLIC "-//W3C//DTD SVG 1.1//EN" "http://www.w3.org/Graphics/SVG/1.1/DTD/svg11.dtd">
<svg version="1.1" xmlns="http://www.w3.org/2000/svg" xmlns:xlink="http://www.w3.org/1999/xlink" preserveAspectRatio="xMidYMid meet" viewBox="0 0 640 640" width="640" height="640"><defs><path d="M417.38 252.2L392.6 252.13L387.09 252.11L370.4 252.07L366.27 252.05L364.44 252.05L278.35 251.81L276.98 251.8L275.68 251.8L270.44 251.78L255.66 251.75L248.53 251.73L233.73 251.68L233.73 37.34L416.31 21.21L422.77 20.64L423.85 252.22L423.85 252.22L417.38 252.2Z" id="awMC8BHv5"></path><path d="M417.38 252.2L417.38 252.22L399.29 252.17L392.6 252.15L387.09 252.14L379.19 252.11L376.03 252.1L370.41 252.09L367.49 252.08L366.27 252.08L364.48 252.07L364.44 252.07L350.86 252.04L348.4 252.03L313.58 251.93L307.32 251.91L281.78 251.83L278.35 251.82C277.52 251.82 277.06 251.82 276.97 251.82C276.98 251.82 276.98 251.81 276.98 251.8C276.89 251.8 276.46 251.8 275.68 251.8L270.44 251.78L255.66 251.75L255.66 251.76L248.53 251.74L243.63 251.73L242.53 251.73L227.27 251.68L227.27 37.34L416.31 20.64L416.31 21.21L417.38 252.2Z" id="a4IDHII9nI"></path><path d="M322.06 1.79C317.89 1.79 314.52 5.17 314.52 9.33C314.52 13.5 317.89 16.87 322.06 16.87C326.22 16.87 329.6 13.5 329.6 9.33C329.6 5.17 326.22 1.79 322.06 1.79Z" id="eqCcqcTxn"></path><path d="M317.75 1.79C313.59 1.79 310.21 5.17 310.21 9.33C310.21 13.5 313.59 16.87 317.75 16.87C321.91 16.87 325.29 13.5 325.29 9.33C325.29 5.17 321.91 1.79 317.75 1.79Z" id="b3HWSCxrwT"></path><path d="M380.77 0.32C380.77 0.32 380.77 0.32 380.77 0.32C381.18 5.47 381.41 8.34 381.45 8.91C381.45 8.91 381.45 8.91 381.45 8.91C310.59 14.57 271.22 17.72 263.35 18.35C263.35 18.35 263.35 18.35 263.35 18.35C262.94 13.19 262.71 10.33 262.66 9.76C262.66 9.76 262.66 9.76 262.66 9.76C333.53 4.09 372.89 0.95 380.77 0.32Z" id="c2PAkt8Ykd"></path><path d="M376.46 0.32C376.46 0.32 376.46 0.32 376.46 0.32C376.87 5.47 377.1 8.34 377.15 8.91C377.15 8.91 377.15 8.91 377.15 8.91C306.28 14.57 266.91 17.72 259.04 18.35C259.04 18.35 259.04 18.35 259.04 18.35C258.63 13.19 258.4 10.33 258.35 9.76C258.35 9.76 258.35 9.76 258.35 9.76C329.22 4.09 368.59 0.95 376.46 0.32Z" id="abXsFVbXb"></path><path d="M377.85 178.54C375.47 177.34 363.57 171.35 342.14 160.56L341.9 160.48L321.82 175.29L313.17 161.97C312.92 161.75 312.77 161.62 312.74 161.6C312.74 161.6 312.56 161.67 312.2 161.81C309.1 163.06 293.13 169.66 281.27 177.52C281.24 177.51 281.12 177.49 280.9 177.46L266.91 184.42L264.4 193.69L261.5 204.39L251.53 250.73L251.53 250.74L258.66 250.76L258.66 250.75L273.44 250.78L275.77 239.36L278.67 250.8C279.46 250.8 279.89 250.8 279.98 250.8C279.98 250.81 279.97 250.82 279.97 250.82C280.06 250.82 280.52 250.82 281.34 250.82L284.78 250.84L310.32 250.91L316.58 250.93L351.4 251.03L353.86 251.04L367.44 251.07L367.47 251.07L369.27 251.08L369.27 251.05L370.2 240.96L370.76 238.14L373.4 251.07L373.41 251.09L379.03 251.1L382.18 251.12L390.09 251.14L395.59 251.15C395.59 251.14 395.59 251.13 395.59 251.13C394.08 240.86 389.89 213.22 387.56 204.39C381.23 180.39 379.8 183.71 377.85 178.54Z" id="ffZmiYJ48"></path><path d="M356.57 133.3C356.56 133.3 356.55 133.29 356.56 133.25C356.42 132.76 354.61 126.95 349.45 129.94C344.06 133.06 337.62 113.48 337.62 113.48C337.62 113.48 321.4 117.95 311.49 117.26C310.82 117.21 310.16 117.05 309.54 116.79C304.9 126.41 306.8 137.91 314.3 145.52C314.18 146.56 313.6 151.76 312.55 161.11L321.54 175.09C333.52 166.1 340.18 161.11 341.51 160.11C341.51 160.11 341.77 163.92 342.59 150.86C350.45 147.35 355.98 140.08 357.28 131.57C356.87 132.49 356.59 133.09 356.56 133.25C356.56 133.26 356.57 133.3 356.57 133.3Z" id="c2yR3iiRix"></path><path d="M355.01 103.87C346.42 96.5 316.11 89.93 306.42 109.48C304.94 112.5 306.18 116.14 309.19 117.63C309.3 117.69 309.42 117.74 309.54 117.79C309.68 117.5 309.84 117.22 309.99 116.94C310.48 117.11 310.98 117.22 311.49 117.26C321.4 117.95 337.62 113.48 337.62 113.48C337.62 113.48 344.06 133.06 349.45 129.94C354.61 126.95 356.42 132.76 356.56 133.25C356.59 133.09 356.87 132.49 357.28 131.57C357.44 130.45 357.53 129.32 357.54 128.19C357.55 128.39 357.56 128.59 357.56 128.79C357.56 130.05 357.46 131.32 357.28 132.57C359.48 127.55 365.4 112.77 355.01 103.87Z" id="fRC4K6ZR4"></path><path d="M331.75 630.83C331.75 645.11 257.49 656.68 165.88 656.68C74.27 656.68 0 645.11 0 630.83C0 616.55 74.27 604.98 165.88 604.98C257.49 604.98 331.75 616.55 331.75 630.83Z" id="b6GSKkQFq"></path><path d="M385.61 620.36L384.94 621.14L173.42 588.82L173.42 347.55L421.15 347.55L421.69 578.59L421.69 578.59L385.61 620.36Z" id="c544uVeMO"></path><path d="M194.5 438.57C194.5 438.57 194.5 438.57 194.5 438.57C220.35 440.51 234.71 441.58 237.58 441.8C237.58 441.8 237.58 441.8 237.58 441.8C237.49 443.09 237.43 443.8 237.42 443.95C237.42 443.95 237.42 443.95 237.42 443.95C211.57 442.01 197.21 440.93 194.34 440.72C194.34 440.72 194.34 440.72 194.34 440.72C194.44 439.43 194.49 438.71 194.5 438.57Z" id="aWpowik3Q"></path><path d="M300.05 448.26C300.05 448.26 300.05 448.26 300.05 448.26C327.2 450.2 342.28 451.28 345.29 451.49C345.29 451.49 345.29 451.49 345.29 451.49C345.2 452.78 345.15 453.5 345.14 453.64C345.14 453.64 345.14 453.64 345.14 453.64C318 451.7 302.92 450.62 299.9 450.41C299.9 450.41 299.9 450.41 299.9 450.41C299.99 449.12 300.04 448.4 300.05 448.26Z" id="bycuUyvVN"></path><path d="M172.94 401.94L172.81 404.09L269.82 410L271.47 603.97L273.63 603.96L271.98 410.13L385 417.02L385.13 414.87L385.13 414.87L172.94 401.94Z" id="ezv59BedL"></path><path d="M385.61 620.36L385.61 347.55L421.15 347.55L421.69 578.59L421.69 578.59L385.61 620.36Z" id="doXU2QI7u"></path><path d="M168.57 352.39L168.57 339.47L220.27 329.78L223.5 323.31L426 328.7L426 347.01L385.61 361.75C369.77 361.31 360.98 361.06 359.22 361.01C359.22 361.01 319.37 394.4 271.97 391.17C271.97 391.17 187.96 352.39 187.96 352.39C185.37 352.39 178.91 352.39 168.57 352.39Z" id="a167Qrpk9y"></path><path d="M364.07 340.01L352.76 348.09C333.75 347.63 323.19 347.37 321.08 347.32C321.08 347.33 321.07 347.32 321.07 347.32C321.06 347.32 321.05 347.32 321.01 347.32L318.6 347.27L318.59 347.27L316.59 347.21L310.26 347.06L309.74 347.05L304.15 346.92L303.94 346.91L296.99 346.75L296.54 346.74L291.4 346.61L290.57 346.6L284.54 346.45L282.6 346.41L271.76 346.15L269.02 346.08C251.73 345.67 242.12 345.44 240.2 345.39C240.2 345.39 219.66 346.42 218.69 340.45C218.67 340.3 218.65 340.16 218.65 340.01C218.65 336.61 222.23 335.89 225.61 335.98C227.62 336.05 229.62 336.32 231.58 336.78C232.13 336.79 234.89 336.86 239.85 336.98L245.01 337.1L261.2 337.5L275.04 337.83L279.94 337.96L286.95 338.13L289.73 338.2L300.05 338.45L304.88 338.56L315.07 338.81L364.07 340.01Z" id="cne34gic6"></path><path d="M303.75 341.08C302.56 341.08 301.59 342.05 301.59 343.24C301.59 344.43 302.56 345.39 303.75 345.39C304.94 345.39 305.9 344.43 305.9 343.24C305.9 342.05 304.94 341.08 303.75 341.08Z" id="c4nPkry45"></path><path d="M325.29 335.7C325.29 336.89 316.13 337.85 304.82 337.85C293.52 337.85 284.36 336.89 284.36 335.7C284.36 334.51 293.52 333.55 304.82 333.55C316.13 333.55 325.29 334.51 325.29 335.7Z" id="huhfOj0Yv"></path><path d="M309.87 312.67L307.83 321.05L282.21 314.8C282.3 314.43 282.35 314.23 282.36 314.19C283.41 309.9 287.73 307.28 292.02 308.32C292.02 308.32 297.97 309.77 309.87 312.67Z" id="a7OZ46iax"></path><path d="M294.86 316.52C294.83 316.7 294.81 316.81 294.81 316.83C294.48 319.01 292.45 320.51 290.27 320.18C290.1 320.16 288.75 319.96 288.58 319.93C286.4 319.6 284.9 317.57 285.22 315.39C285.23 315.37 285.24 315.26 285.27 315.08L294.86 316.52Z" id="h8SdewVuIH"></path><path d="M307.83 318.89C299.8 316.93 295.33 315.84 294.44 315.63C293.62 317.3 291.81 318.26 289.96 317.98C289.85 317.97 289 317.84 288.89 317.82C286.72 317.49 285.15 315.58 285.25 313.39C285.02 313.33 283.2 312.89 282.97 312.83C282.64 313.45 282.38 314.12 282.21 314.8C282.52 314.87 284.95 315.47 285.25 315.54C285.15 317.73 286.72 319.65 288.89 319.98C289 319.99 289.85 320.12 289.96 320.14C291.81 320.41 293.62 319.46 294.44 317.78C295.33 318 299.8 319.09 307.83 321.05L309.87 312.67L309.38 312.55L307.83 318.89Z" id="c8py8mpIC"></path><path d="M305.58 336.78C301.23 336.78 297.71 333.25 297.71 328.91C297.71 328.77 297.71 328.63 297.72 328.5C297.8 327 298.19 319.53 298.9 306.08L313.44 305.54C313.44 319.56 313.44 327.35 313.44 328.91C313.44 333.25 309.92 336.78 305.58 336.78C305.58 336.78 305.58 336.78 305.58 336.78C305.58 336.78 305.58 336.78 305.58 336.78Z" id="cYDeKBV99"></path><path d="M312.36 306.08C304.51 306.08 300.14 306.08 299.27 306.08C301.54 302.63 300.12 299.1 296.94 295.53C296.42 294.94 296.48 294.03 297.07 293.51C297.33 293.28 297.67 293.15 298.02 293.15C298.52 293.15 302.51 293.15 303.01 293.15C308.18 293.15 312.36 297.98 312.36 303.92C312.36 304.21 312.36 304.93 312.36 306.08Z" id="b2x9C59kEe"></path><path d="M301.38 293.51C301.64 293.28 301.98 293.15 302.33 293.15C301.9 293.15 298.45 293.15 298.02 293.15C297.23 293.15 296.59 293.79 296.59 294.58C296.59 294.93 296.71 295.27 296.94 295.53C300.12 299.1 301.54 302.63 299.27 306.08C299.7 306.08 303.15 306.08 303.58 306.08C305.85 302.63 304.43 299.1 301.25 295.53C300.73 294.94 300.79 294.03 301.38 293.51Z" id="e4yOFm4ol"></path><path d="M239.11 318.77C249.04 322.29 254.57 324.24 255.67 324.63C255.67 324.63 295.07 327.77 289.96 337.8C289.96 337.8 251.12 341.34 251.12 341.34C250.06 340.6 244.74 336.91 235.15 330.25L239.11 318.77Z" id="fBA1EgR7K"></path><path d="M259.61 337.63C259.37 337.41 259.09 337.23 258.8 337.09C260.77 335.75 261.28 333.06 259.94 331.09C258.6 329.11 255.91 328.6 253.94 329.94C251.96 331.29 251.45 333.97 252.79 335.95C253.37 336.79 254.22 337.4 255.2 337.68C253.91 338.91 253.86 340.95 255.1 342.24C256.33 343.53 258.37 343.58 259.66 342.35C260.15 341.88 260.48 341.27 260.6 340.6C262.13 342.43 264.84 342.67 266.66 341.14C268.48 339.62 268.72 336.91 267.2 335.09C266.38 334.11 265.17 333.54 263.89 333.55C261.6 333.55 259.72 335.35 259.61 337.63Z" id="b2vgN83Zd"></path><path d="M267.15 339.79C266.91 339.57 266.63 339.38 266.34 339.24C268.31 337.9 268.82 335.21 267.48 333.24C266.14 331.27 263.45 330.76 261.48 332.1C259.5 333.44 258.99 336.13 260.33 338.1C260.91 338.94 261.76 339.56 262.74 339.83C261.45 341.06 261.4 343.11 262.64 344.39C263.87 345.68 265.91 345.73 267.2 344.5C267.69 344.03 268.02 343.42 268.14 342.76C269.67 344.58 272.38 344.82 274.2 343.3C276.02 341.78 276.26 339.06 274.74 337.24C273.92 336.26 272.71 335.7 271.43 335.7C269.14 335.7 267.26 337.5 267.15 339.79Z" id="a1oRpT0SRO"></path><path d="M251.16 318.3L236.17 343.07L204.64 321.9L168.43 297.6L146.6 240.28L124.4 199.63C141.09 194.71 150.36 191.98 152.22 191.43C152.22 191.43 161.79 191.8 174.17 214.51C186.54 237.24 197.55 276.58 197.55 276.58C198.54 277.34 203.47 281.18 212.34 288.09L251.16 318.3Z" id="b1PiAB4Row"></path><path d="M251.16 318.3L236.17 343.07L204.64 321.9L168.43 297.6L146.6 240.28L124.4 199.63C141.09 194.71 150.36 191.98 152.22 191.43C152.22 191.43 161.79 191.8 174.17 214.51C186.54 237.24 197.55 276.58 197.55 276.58C198.54 277.34 203.47 281.18 212.34 288.09L251.16 318.3Z" id="g2RmVdHs6D"></path><path d="M282.6 346.41L279.56 342.95L277.4 340.5L275.04 337.83L272.42 334.87L276.88 327.95L279.01 324.66L287.6 330.3C291.26 332.7 293.29 334.03 293.7 334.3C293.7 334.3 298.8 336 304.88 338.56C310.52 340.96 317.02 344.1 321.01 347.32C315.89 347.2 303.09 346.89 282.6 346.41Z" id="kOfHBluVS"></path><path d="M172.35 97.3C157.81 97.3 146.01 109.09 146.01 123.63C146.01 138.18 157.81 149.97 172.35 149.97C186.9 149.97 198.69 138.18 198.69 123.63C198.69 109.09 186.9 97.3 172.35 97.3Z" id="a4IfuURqz"></path><path d="M149.31 169.07C169.06 171.44 180.03 172.75 182.23 173.02C182.23 173.02 182.23 141.41 184.86 137.46C187.5 133.51 151.94 130.88 151.94 130.88C151.59 135.97 150.71 148.7 149.31 169.07Z" id="b28Pwbexq5"></path><path d="M225.03 180.26C199.44 169.43 185.23 163.41 182.38 162.2C182.38 162.2 162.01 146.48 150.06 158.1C149.53 158.87 145.23 165.01 144.7 165.77C144.7 165.77 112.02 183.34 112.02 197.83C112.39 205.16 115.35 263.8 115.72 271.13C115.72 271.13 105.19 311.95 120.99 314.58C129.55 315.37 198.03 321.7 206.59 322.49C206.59 322.49 218.44 308 207.91 289.56C208.17 286.67 209.49 272.18 211.86 246.11L225.03 180.26Z" id="b3Mp4WMSux"></path><path d="M196.06 181.58C213.44 180.79 223.1 180.35 225.03 180.26C225.03 180.26 227.15 182.5 233.73 207.52C240.32 232.54 248.73 273.76 248.73 273.76C251.54 277.32 265.57 295.09 290.82 327.08L270.36 347.55L215.42 287.23L207.91 226.35L196.06 181.58Z" id="b1nNdb42E3"></path><path d="M115.86 311.52C115.86 311.52 106.51 371.21 107.82 394.91C107.82 394.91 110.46 455.49 110.46 455.49C109.75 466.2 106.24 519.76 99.92 616.15L140.75 610.89L146.01 477.88L163.13 405.45L182.89 497.63L196.06 616.15L231.61 612.2C224.5 526.08 220.55 478.23 219.76 468.66C219.76 468.66 230.29 339.6 210.54 319.85C191.61 318.19 125.33 312.35 115.86 311.52Z" id="a1GXR89bzw"></path><path d="M223.71 605.62C230.82 607.99 234.77 609.3 235.56 609.57C235.56 609.57 260.58 602.98 254 620.1C254 620.1 228.98 634.59 228.98 634.59C228.98 634.59 206.59 651.71 197.37 638.54C197.72 636.7 199.48 627.48 202.64 610.89L223.71 605.62Z" id="b3o0yjXg3c"></path><path d="M127.58 605.62C134.69 607.99 138.64 609.3 139.43 609.57C139.43 609.57 164.45 602.98 157.87 620.1C157.87 620.1 132.84 634.59 132.84 634.59C132.84 634.59 110.46 651.71 101.24 638.54C101.59 636.7 103.35 627.48 106.51 610.89L127.58 605.62Z" id="e6U2X0vgD"></path><path d="M138.77 103.22C148.82 86.78 169.64 88.08 181.46 90.42C187.92 91.61 193.38 95.91 196.06 101.91C198.03 106.51 198.03 111.12 190.13 111.12C174.33 111.12 182.23 122.98 182.23 122.98C182.23 122.98 171.69 125.61 174.33 134.83C176.96 144.05 151.94 146.68 151.94 146.68C149.31 137.99 124.28 126.93 138.77 103.22Z" id="dkZAUCh6q"></path><path d="M319.9 341.08C318.12 341.08 316.67 342.53 316.67 344.32C316.67 346.1 318.12 347.55 319.9 347.55C321.69 347.55 323.14 346.1 323.14 344.32C323.14 342.53 321.69 341.08 319.9 341.08Z" id="cwXbZi5wH"></path><path d="M315.07 338.81C314.3 338.19 313.35 337.86 312.36 337.85C312.31 337.85 312.27 337.86 312.21 337.86C311.63 335.57 309.3 334.17 307.01 334.75C305.74 335.07 304.68 335.95 304.15 337.14C302.73 336.4 300.99 336.81 300.06 338.11C296.89 337.71 293.79 336.9 290.82 335.7C289.17 335.7 287.67 336.64 286.95 338.13C286.66 338.71 286.51 339.36 286.51 340.01C286.52 340.78 286.73 341.54 287.14 342.21C285.55 342.43 284.36 343.79 284.36 345.39C284.36 345.75 284.42 346.11 284.54 346.45C285.15 346.46 289.97 346.58 290.57 346.6C290.66 346.4 290.72 346.2 290.76 345.99C290.95 346.22 291.17 346.42 291.4 346.61C291.75 346.62 293.46 346.66 296.54 346.74C296.72 346.6 296.81 346.53 296.83 346.51C296.88 346.6 296.93 346.68 296.99 346.75C297.69 346.77 303.25 346.9 303.94 346.91C303.98 346.86 304.02 346.81 304.06 346.76C304.08 346.82 304.11 346.87 304.15 346.92C304.7 346.94 309.18 347.04 309.74 347.05C309.96 346.68 310.11 346.27 310.17 345.85C310.2 345.87 310.23 345.89 310.26 345.9C310.23 346.09 310.21 346.28 310.21 346.47C310.21 346.67 310.23 346.87 310.26 347.06C310.9 347.08 315.95 347.2 316.59 347.21C316.64 346.97 316.67 346.72 316.67 346.47C316.67 345.75 316.43 345.05 315.98 344.49C316.43 343.8 316.67 342.99 316.67 342.16C316.68 340.86 316.08 339.63 315.07 338.81ZM304.5 342.67C304.57 342.83 304.6 343 304.65 343.16C304.92 342.87 305.25 342.64 305.61 342.47C305.44 342.35 305.28 342.22 305.14 342.08C304.95 342.3 304.74 342.5 304.5 342.67Z" id="b3R5DGvCe1"></path><path d="M348.99 342.16C347.2 342.16 345.75 343.61 345.75 345.39C345.75 347.18 347.2 348.62 348.99 348.62C350.77 348.62 352.22 347.18 352.22 345.39C352.22 343.61 350.77 342.16 348.99 342.16Z" id="b2c81bcYdQ"></path><path d="M344.15 339.89C343.38 339.27 342.43 338.93 341.45 338.93C341.39 338.93 341.35 338.94 341.3 338.94C340.72 336.64 338.39 335.25 336.09 335.83C334.82 336.15 333.77 337.03 333.23 338.22C331.82 337.48 330.07 337.89 329.15 339.19C325.97 338.78 322.87 337.97 319.9 336.78C318.25 336.77 316.75 337.72 316.04 339.21C315.74 339.79 315.59 340.43 315.6 341.08C315.6 341.86 315.82 342.62 316.22 343.28C314.63 343.51 313.44 344.86 313.44 346.47C313.44 346.83 313.5 347.19 313.62 347.53C314.23 347.54 319.05 347.66 319.66 347.68C319.74 347.48 319.8 347.27 319.84 347.06C320.03 347.29 320.25 347.5 320.49 347.69C320.83 347.7 322.54 347.74 325.62 347.82C325.8 347.68 325.89 347.61 325.91 347.59C325.96 347.67 326.02 347.75 326.08 347.83C326.77 347.84 332.33 347.97 333.02 347.99C333.07 347.94 333.11 347.89 333.14 347.84C333.17 347.89 333.2 347.95 333.23 348C333.79 348.01 338.26 348.12 338.82 348.13C339.04 347.76 339.19 347.35 339.25 346.92C339.28 346.94 339.31 346.96 339.35 346.98C339.31 347.17 339.29 347.36 339.29 347.55C339.29 347.75 339.31 347.94 339.35 348.14C339.98 348.16 345.04 348.28 345.67 348.29C345.72 348.05 345.75 347.8 345.75 347.55C345.75 346.83 345.51 346.13 345.07 345.57C345.51 344.87 345.75 344.06 345.75 343.24C345.76 341.94 345.17 340.7 344.15 339.89ZM333.58 343.75C333.65 343.91 333.68 344.08 333.73 344.24C334.01 343.95 334.33 343.72 334.69 343.55C334.53 343.43 334.37 343.3 334.22 343.15C334.03 343.38 333.82 343.58 333.58 343.75Z" id="a1DbOofysy"></path><path d="M302.4 341.62C301.06 341.62 299.98 342.71 299.98 344.05C299.98 345.39 301.06 346.47 302.4 346.47C303.74 346.47 304.82 345.39 304.82 344.05C304.82 342.71 303.74 341.62 302.4 341.62Z" id="bnCzmnhz8"></path><path d="M298.77 339.92C298.2 339.46 297.48 339.2 296.75 339.2C296.71 339.2 296.67 339.21 296.63 339.21C296.2 337.48 294.45 336.44 292.73 336.87C291.78 337.11 290.99 337.77 290.58 338.67C289.52 338.11 288.22 338.42 287.52 339.39C285.14 339.09 282.81 338.48 280.59 337.58C279.35 337.58 278.22 338.29 277.69 339.41C277.47 339.85 277.36 340.33 277.36 340.82C277.36 341.4 277.52 341.97 277.83 342.46C276.63 342.63 275.74 343.65 275.74 344.85C275.74 345.12 275.79 345.39 275.88 345.65C276.33 345.66 279.95 345.75 280.4 345.76C280.47 345.61 280.51 345.46 280.54 345.3C280.69 345.47 280.85 345.63 281.03 345.77C281.28 345.77 282.57 345.81 284.88 345.86C285.01 345.76 285.08 345.71 285.1 345.69C285.13 345.76 285.17 345.82 285.22 345.87C285.74 345.88 289.91 345.98 290.43 345.99C290.46 345.96 290.49 345.92 290.52 345.88C290.54 345.92 290.56 345.96 290.58 346C291 346.01 294.36 346.09 294.77 346.1C294.94 345.82 295.05 345.51 295.1 345.19C295.12 345.21 295.14 345.22 295.17 345.23C295.15 345.38 295.13 345.52 295.13 345.66C295.13 345.81 295.14 345.96 295.17 346.11C295.64 346.12 299.44 346.21 299.91 346.22C299.95 346.04 299.98 345.85 299.98 345.66C299.97 345.12 299.79 344.6 299.46 344.18C299.8 343.66 299.98 343.05 299.98 342.43C299.98 341.45 299.54 340.53 298.77 339.92ZM290.85 342.81C290.9 342.93 290.92 343.06 290.96 343.18C291.17 342.97 291.41 342.79 291.68 342.67C291.56 342.57 291.44 342.47 291.33 342.37C291.19 342.54 291.03 342.68 290.85 342.81Z" id="g77YdGJRdG"></path><path d="M267.93 341.62C266.59 341.62 265.51 342.71 265.51 344.05C265.51 345.39 266.59 346.47 267.93 346.47C269.27 346.47 270.36 345.39 270.36 344.05C270.36 342.71 269.27 341.62 267.93 341.62Z" id="aZq0JO3SR"></path><path d="M264.31 339.92C263.73 339.46 263.02 339.2 262.28 339.2C262.24 339.2 262.21 339.21 262.17 339.21C261.73 337.48 259.98 336.44 258.26 336.87C257.31 337.11 256.52 337.77 256.11 338.67C255.06 338.11 253.75 338.42 253.05 339.39C250.67 339.09 248.34 338.48 246.12 337.58C244.88 337.58 243.76 338.29 243.22 339.41C243 339.85 242.89 340.33 242.89 340.82C242.89 341.4 243.05 341.97 243.36 342.46C242.17 342.63 241.28 343.65 241.27 344.85C241.27 345.12 241.32 345.39 241.41 345.65C241.86 345.66 245.48 345.75 245.94 345.76C246 345.61 246.04 345.46 246.07 345.3C246.22 345.47 246.38 345.63 246.56 345.77C246.81 345.77 248.1 345.81 250.41 345.86C250.54 345.76 250.61 345.71 250.63 345.69C250.66 345.76 250.71 345.82 250.75 345.87C251.27 345.88 255.44 345.98 255.96 345.99C255.99 345.96 256.02 345.92 256.05 345.88C256.07 345.92 256.09 345.96 256.11 346C256.53 346.01 259.89 346.09 260.31 346.1C260.48 345.82 260.58 345.51 260.63 345.19C260.65 345.21 260.68 345.22 260.7 345.23C260.68 345.38 260.66 345.52 260.66 345.66C260.66 345.81 260.68 345.96 260.7 346.11C261.18 346.12 264.97 346.21 265.44 346.22C265.49 346.04 265.51 345.85 265.51 345.66C265.51 345.12 265.32 344.6 264.99 344.18C265.33 343.66 265.51 343.05 265.51 342.43C265.51 341.45 265.07 340.53 264.31 339.92ZM256.38 342.81C256.43 342.93 256.45 343.06 256.49 343.18C256.7 342.97 256.94 342.79 257.21 342.67C257.09 342.57 256.97 342.47 256.86 342.37C256.72 342.54 256.56 342.68 256.38 342.81Z" id="h53Hwo6Fk"></path><path d="M381.03 311.4L381.03 304.94L375.64 304.94C375.64 305.58 375.64 305.94 375.64 306.01C375.05 306.01 374.57 306.74 374.57 307.63C374.57 308.52 375.05 309.24 375.64 309.24C375.64 309.39 375.64 310.11 375.64 311.4L371.34 311.4L371.34 332.94L385.34 332.94L385.34 311.4L381.03 311.4Z" id="ai1jbB3UX"></path></defs><g><g><g><use xlink:href="#awMC8BHv5" opacity="1" fill="#000000" fill-opacity="1"></use><g><use xlink:href="#awMC8BHv5" opacity="1" fill-opacity="0" stroke="#000000" stroke-width="1" stroke-opacity="0"></use></g></g><g><use xlink:href="#a4IDHII9nI" opacity="1" fill="#e6e6e6" fill-opacity="1"></use><g><use xlink:href="#a4IDHII9nI" opacity="1" fill-opacity="0" stroke="#000000" stroke-width="1" stroke-opacity="0"></use></g></g><g><use xlink:href="#eqCcqcTxn" opacity="1" fill="#000000" fill-opacity="1"></use><g><use xlink:href="#eqCcqcTxn" opacity="1" fill-opacity="0" stroke="#000000" stroke-width="1" stroke-opacity="0"></use></g></g><g><use xlink:href="#b3HWSCxrwT" opacity="1" fill="#3f3d56" fill-opacity="1"></use><g><use xlink:href="#b3HWSCxrwT" opacity="1" fill-opacity="0" stroke="#000000" stroke-width="1" stroke-opacity="0"></use></g></g><g><use xlink:href="#c2PAkt8Ykd" opacity="1" fill="#000000" fill-opacity="1"></use><g><use xlink:href="#c2PAkt8Ykd" opacity="1" fill-opacity="0" stroke="#000000" stroke-width="1" stroke-opacity="0"></use></g></g><g><use xlink:href="#abXsFVbXb" opacity="1" fill="#e6e6e6" fill-opacity="1"></use><g><use xlink:href="#abXsFVbXb" opacity="1" fill-opacity="0" stroke="#000000" stroke-width="1" stroke-opacity="0"></use></g></g><g><use xlink:href="#ffZmiYJ48" opacity="1" fill="#d55d5d" fill-opacity="1"></use><g><use xlink:href="#ffZmiYJ48" opacity="1" fill-opacity="0" stroke="#000000" stroke-width="1" stroke-opacity="0"></use></g></g><g><use xlink:href="#c2yR3iiRix" opacity="1" fill="#ffb8b8" fill-opacity="1"></use><g><use xlink:href="#c2yR3iiRix" opacity="1" fill-opacity="0" stroke="#000000" stroke-width="1" stroke-opacity="0"></use></g></g><g><use xlink:href="#fRC4K6ZR4" opacity="1" fill="#592f2f" fill-opacity="1"></use><g><use xlink:href="#fRC4K6ZR4" opacity="1" fill-opacity="0" stroke="#000000" stroke-width="1" stroke-opacity="0"></use></g></g><g><use xlink:href="#b6GSKkQFq" opacity="1" fill="#e6e6e6" fill-opacity="1"></use><g><use xlink:href="#b6GSKkQFq" opacity="1" fill-opacity="0" stroke="#000000" stroke-width="1" stroke-opacity="0"></use></g></g><g><use xlink:href="#c544uVeMO" opacity="1" fill="#700000" fill-opacity="1"></use><g><use xlink:href="#c544uVeMO" opacity="1" fill-opacity="0" stroke="#000000" stroke-width="1" stroke-opacity="0"></use></g></g><g><use xlink:href="#aWpowik3Q" opacity="1" fill="#e6e6e6" fill-opacity="1"></use><g><use xlink:href="#aWpowik3Q" opacity="1" fill-opacity="0" stroke="#000000" stroke-width="1" stroke-opacity="0"></use></g></g><g><use xlink:href="#bycuUyvVN" opacity="1" fill="#e6e6e6" fill-opacity="1"></use><g><use xlink:href="#bycuUyvVN" opacity="1" fill-opacity="0" stroke="#000000" stroke-width="1" stroke-opacity="0"></use></g></g><g><use xlink:href="#ezv59BedL" opacity="1" fill="#e6e6e6" fill-opacity="1"></use><g><use xlink:href="#ezv59BedL" opacity="1" fill-opacity="0" stroke="#000000" stroke-width="1" stroke-opacity="0"></use></g></g><g><use xlink:href="#doXU2QI7u" opacity="1" fill="#000000" fill-opacity="1"></use><g><use xlink:href="#doXU2QI7u" opacity="1" fill-opacity="0" stroke="#000000" stroke-width="1" stroke-opacity="0"></use></g></g><g><use xlink:href="#a167Qrpk9y" opacity="1" fill="#e6e6e6" fill-opacity="1"></use><g><use xlink:href="#a167Qrpk9y" opacity="1" fill-opacity="0" stroke="#000000" stroke-width="1" stroke-opacity="0"></use></g></g><g><use xlink:href="#cne34gic6" opacity="1" fill="#cccccc" fill-opacity="1"></use><g><use xlink:href="#cne34gic6" opacity="1" fill-opacity="0" stroke="#000000" stroke-width="1" stroke-opacity="0"></use></g></g><g><use xlink:href="#c4nPkry45" opacity="1" fill="#3f3d56" fill-opacity="1"></use><g><use xlink:href="#c4nPkry45" opacity="1" fill-opacity="0" stroke="#000000" stroke-width="1" stroke-opacity="0"></use></g></g><g><use xlink:href="#huhfOj0Yv" opacity="1" fill="#cccccc" fill-opacity="1"></use><g><use xlink:href="#huhfOj0Yv" opacity="1" fill-opacity="0" stroke="#000000" stroke-width="1" stroke-opacity="0"></use></g></g><g><use xlink:href="#a7OZ46iax" opacity="1" fill="#700000" fill-opacity="1"></use><g><use xlink:href="#a7OZ46iax" opacity="1" fill-opacity="0" stroke="#000000" stroke-width="1" stroke-opacity="0"></use></g></g><g><use xlink:href="#h8SdewVuIH" opacity="1" fill="#700000" fill-opacity="1"></use><g><use xlink:href="#h8SdewVuIH" opacity="1" fill-opacity="0" stroke="#000000" stroke-width="1" stroke-opacity="0"></use></g></g><g><use xlink:href="#c8py8mpIC" opacity="1" fill="#000000" fill-opacity="1"></use><g><use xlink:href="#c8py8mpIC" opacity="1" fill-opacity="0" stroke="#000000" stroke-width="1" stroke-opacity="0"></use></g></g><g><use xlink:href="#cYDeKBV99" opacity="1" fill="#700000" fill-opacity="1"></use><g><use xlink:href="#cYDeKBV99" opacity="1" fill-opacity="0" stroke="#000000" stroke-width="1" stroke-opacity="0"></use></g></g><g><use xlink:href="#b2x9C59kEe" opacity="1" fill="#700000" fill-opacity="1"></use><g><use xlink:href="#b2x9C59kEe" opacity="1" fill-opacity="0" stroke="#000000" stroke-width="1" stroke-opacity="0"></use></g></g><g><use xlink:href="#e4yOFm4ol" opacity="1" fill="#000000" fill-opacity="1"></use><g><use xlink:href="#e4yOFm4ol" opacity="1" fill-opacity="0" stroke="#000000" stroke-width="1" stroke-opacity="0"></use></g></g><g><use xlink:href="#fBA1EgR7K" opacity="1" fill="#ffb8b8" fill-opacity="1"></use><g><use xlink:href="#fBA1EgR7K" opacity="1" fill-opacity="0" stroke="#000000" stroke-width="1" stroke-opacity="0"></use></g></g><g><use xlink:href="#b2vgN83Zd" opacity="1" fill="#ffffff" fill-opacity="1"></use><g><use xlink:href="#b2vgN83Zd" opacity="1" fill-opacity="0" stroke="#000000" stroke-width="1" stroke-opacity="0"></use></g></g><g><use xlink:href="#a1oRpT0SRO" opacity="1" fill="#ffffff" fill-opacity="1"></use><g><use xlink:href="#a1oRpT0SRO" opacity="1" fill-opacity="0" stroke="#000000" stroke-width="1" stroke-opacity="0"></use></g></g><g><use xlink:href="#b1PiAB4Row" opacity="1" fill="#6c63ff" fill-opacity="1"></use><g><use xlink:href="#b1PiAB4Row" opacity="1" fill-opacity="0" stroke="#000000" stroke-width="1" stroke-opacity="0"></use></g></g><g><use xlink:href="#g2RmVdHs6D" opacity="1" fill="#000000" fill-opacity="1"></use><g><use xlink:href="#g2RmVdHs6D" opacity="1" fill-opacity="0" stroke="#000000" stroke-width="1" stroke-opacity="0"></use></g></g><g><use xlink:href="#kOfHBluVS" opacity="1" fill="#ffb8b8" fill-opacity="1"></use><g><use xlink:href="#kOfHBluVS" opacity="1" fill-opacity="0" stroke="#000000" stroke-width="1" stroke-opacity="0"></use></g></g><g><use xlink:href="#a4IfuURqz" opacity="1" fill="#ffb8b8" fill-opacity="1"></use><g><use xlink:href="#a4IfuURqz" opacity="1" fill-opacity="0" stroke="#000000" stroke-width="1" stroke-opacity="0"></use></g></g><g><use xlink:href="#b28Pwbexq5" opacity="1" fill="#ffb8b8" fill-opacity="1"></use><g><use xlink:href="#b28Pwbexq5" opacity="1" fill-opacity="0" stroke="#000000" stroke-width="1" stroke-opacity="0"></use></g></g><g><use xlink:href="#b3Mp4WMSux" opacity="1" fill="#930000" fill-opacity="1"></use><g><use xlink:href="#b3Mp4WMSux" opacity="1" fill-opacity="0" stroke="#000000" stroke-width="1" stroke-opacity="0"></use></g></g><g><use xlink:href="#b1nNdb42E3" opacity="1" fill="#930000" fill-opacity="1"></use><g><use xlink:href="#b1nNdb42E3" opacity="1" fill-opacity="0" stroke="#000000" stroke-width="1" stroke-opacity="0"></use></g></g><g><use xlink:href="#a1GXR89bzw" opacity="1" fill="#410000" fill-opacity="1"></use><g><use xlink:href="#a1GXR89bzw" opacity="1" fill-opacity="0" stroke="#000000" stroke-width="1" stroke-opacity="0"></use></g></g><g><use xlink:href="#b3o0yjXg3c" opacity="1" fill="#410000" fill-opacity="1"></use><g><use xlink:href="#b3o0yjXg3c" opacity="1" fill-opacity="0" stroke="#000000" stroke-width="1" stroke-opacity="0"></use></g></g><g><use xlink:href="#e6U2X0vgD" opacity="1" fill="#410000" fill-opacity="1"></use><g><use xlink:href="#e6U2X0vgD" opacity="1" fill-opacity="0" stroke="#000000" stroke-width="1" stroke-opacity="0"></use></g></g><g><use xlink:href="#dkZAUCh6q" opacity="1" fill="#410000" fill-opacity="1"></use><g><use xlink:href="#dkZAUCh6q" opacity="1" fill-opacity="0" stroke="#000000" stroke-width="1" stroke-opacity="0"></use></g></g><g><use xlink:href="#cwXbZi5wH" opacity="1" fill="#ffffff" fill-opacity="1"></use><g><use xlink:href="#cwXbZi5wH" opacity="1" fill-opacity="0" stroke="#000000" stroke-width="1" stroke-opacity="0"></use></g></g><g><use xlink:href="#b3R5DGvCe1" opacity="1" fill="#ffffff" fill-opacity="1"></use><g><use xlink:href="#b3R5DGvCe1" opacity="1" fill-opacity="0" stroke="#000000" stroke-width="1" stroke-opacity="0"></use></g></g><g><use xlink:href="#b2c81bcYdQ" opacity="1" fill="#ffffff" fill-opacity="1"></use><g><use xlink:href="#b2c81bcYdQ" opacity="1" fill-opacity="0" stroke="#000000" stroke-width="1" stroke-opacity="0"></use></g></g><g><use xlink:href="#a1DbOofysy" opacity="1" fill="#ffffff" fill-opacity="1"></use><g><use xlink:href="#a1DbOofysy" opacity="1" fill-opacity="0" stroke="#000000" stroke-width="1" stroke-opacity="0"></use></g></g><g><use xlink:href="#bnCzmnhz8" opacity="1" fill="#ffffff" fill-opacity="1"></use><g><use xlink:href="#bnCzmnhz8" opacity="1" fill-opacity="0" stroke="#000000" stroke-width="1" stroke-opacity="0"></use></g></g><g><use xlink:href="#g77YdGJRdG" opacity="1" fill="#ffffff" fill-opacity="1"></use><g><use xlink:href="#g77YdGJRdG" opacity="1" fill-opacity="0" stroke="#000000" stroke-width="1" stroke-opacity="0"></use></g></g><g><use xlink:href="#aZq0JO3SR" opacity="1" fill="#ffffff" fill-opacity="1"></use><g><use xlink:href="#aZq0JO3SR" opacity="1" fill-opacity="0" stroke="#000000" stroke-width="1" stroke-opacity="0"></use></g></g><g><use xlink:href="#h53Hwo6Fk" opacity="1" fill="#ffffff" fill-opacity="1"></use><g><use xlink:href="#h53Hwo6Fk" opacity="1" fill-opacity="0" stroke="#000000" stroke-width="1" stroke-opacity="0"></use></g></g><g><use xlink:href="#ai1jbB3UX" opacity="1" fill="#700000" fill-opacity="1"></use><g><use xlink:href="#ai1jbB3UX" opacity="1" fill-opacity="0" stroke="#000000" stroke-width="1" stroke-opacity="0"></use></g></g></g></g></svg>